<svg aria-hidden="true" style="position: absolute; width: 0; height: 0; overflow: hidden;" version="1.1" xmlns="http://www.w3.org/2000/svg" xmlns:xlink="http://www.w3.org/1999/xlink">
<defs>
<symbol id="icon-star-outline" viewBox="0 0 24 24">
<path d="M16.855 20.966c-0.224 0-0.443-0.050-0.646-0.146-0.035-0.014-0.069-0.031-0.104-0.051l-4.107-2.343-4.107 2.344c-0.035 0.020-0.070 0.037-0.106 0.053-0.488 0.228-1.085 0.174-1.521-0.143-0.469-0.34-0.701-0.933-0.586-1.509l0.957-4.642c-0.374-0.34-0.962-0.875-1.602-1.457l-1.895-1.725c-0.027-0.025-0.055-0.053-0.078-0.082-0.375-0.396-0.509-0.97-0.34-1.492 0.173-0.524 0.62-0.912 1.16-1.009 0.034-0.008 0.067-0.014 0.102-0.018l4.701-0.521 1.946-4.31c0.017-0.038 0.036-0.075 0.060-0.11 0.262-0.473 0.764-0.771 1.309-0.771 0.543 0 1.044 0.298 1.309 0.77 0.021 0.036 0.041 0.073 0.060 0.112l1.948 4.312 4.701 0.521c0.034 0.003 0.068 0.009 0.104 0.017 0.539 0.1 0.986 0.486 1.158 1.012 0.17 0.521 0.035 1.098-0.34 1.494-0.024 0.026-0.051 0.054-0.078 0.078l-3.498 3.184 0.957 4.632c0.113 0.587-0.118 1.178-0.59 1.519-0.252 0.182-0.556 0.281-0.874 0.281zM8.706 14.402c-0.039 0.182-0.466 2.246-0.845 4.082l3.643-2.077c0.307-0.175 0.684-0.175 0.99 0l3.643 2.075-0.849-4.104c-0.071-0.346 0.045-0.705 0.308-0.942l3.1-2.822-4.168-0.461c-0.351-0.039-0.654-0.26-0.801-0.584l-1.728-3.821-1.726 3.821c-0.146 0.322-0.45 0.543-0.801 0.584l-4.168 0.461 3.1 2.822c0.272 0.246 0.384 0.617 0.302 0.966z"></path>
</symbol>
<symbol id="icon-chopper" viewBox="0 0 32 32">
<path d="M20.638 19.592h-2.593c-0.345 0-0.625 0.28-0.625 0.625s0.28 0.625 0.625 0.625h2.593c0.345 0 0.625-0.28 0.625-0.625s-0.28-0.625-0.625-0.625z"></path>
<path d="M22.468 19.592h-0.015c-0.345 0-0.625 0.28-0.625 0.625s0.28 0.625 0.625 0.625h0.015c0.345 0 0.625-0.28 0.625-0.625s-0.28-0.625-0.625-0.625z"></path>
<path d="M31.375 23.958c-0.345 0-0.625 0.28-0.625 0.625 0 0.437-0.355 0.792-0.792 0.792h-1.528l-0.58-2.686h3.525c0.169 0 0.33-0.068 0.448-0.189s0.181-0.285 0.177-0.453c-0.040-1.409-0.279-2.726-0.707-3.937-0.012-0.059-0.032-0.115-0.060-0.167-0.875-2.358-2.482-4.308-4.765-5.745-2.277-1.434-4.827-2.112-6.715-2.312v-0.657c0-0.834-0.552-1.541-1.31-1.776v-0.827h12.932c0.345 0 0.625-0.28 0.625-0.625s-0.28-0.625-0.625-0.625h-27.207c-0.345 0-0.625 0.28-0.625 0.625s0.28 0.625 0.625 0.625h13.025v0.827c-0.758 0.235-1.31 0.942-1.31 1.775v0.597c-0.325 0.023-0.581 0.292-0.581 0.623l-0.001 4.376h-10.588l-1.040-2.859c-0.090-0.247-0.325-0.411-0.587-0.411h-2.461c-0.345 0-0.625 0.28-0.625 0.625v3.27c0 0.001 0 0.002 0 0.004s-0 0.002-0 0.003l0.026 2.356c0.003 0.302 0.223 0.559 0.521 0.609l14.754 2.493-0 1.157c0 0.166 0.066 0.325 0.184 0.443s0.276 0.182 0.441 0.182c0.001 0 0.001 0 0.002 0l2.504-0.007-0.58 2.686h-0.509c-0.437 0-0.792-0.355-0.792-0.792 0-0.345-0.28-0.625-0.625-0.625s-0.625 0.28-0.625 0.625c0 1.126 0.916 2.042 2.042 2.042h1.012c0.001 0 0.002 0 0.002 0s0.002-0 0.003-0h9.562c0.001 0 0.002 0 0.003 0s0.002-0 0.002-0h2.031c1.126 0 2.042-0.916 2.042-2.042 0-0.345-0.28-0.625-0.625-0.625zM1.25 12.804h1.399l0.735 2.020h-2.134v-2.020zM15.301 19.646l-14.031-2.371-0.013-1.202h14.045l-0.001 3.572zM29.742 17.608c-4.646-0.008-7.384-0.099-8.661-0.953-1.126-0.752-1.308-2.291-1.326-5.511 2.894 0.341 7.861 1.93 9.987 6.464zM17.134 9.228c0-0.335 0.273-0.608 0.608-0.608h0.153c0.335 0 0.608 0.273 0.608 0.608v0.592c-0 0-0.001 0-0.001 0l-1.368 0.002v-0.594zM16.551 21.445l0.001-10.358h1.952c0.014 3.435 0.187 5.476 1.883 6.609 1.62 1.082 4.512 1.16 9.842 1.164 0.247 0.784 0.416 1.642 0.488 2.581l-14.166 0.006c0 0.001 0 0.002 0 0zM19.131 25.375l0.58-2.686h6.86l0.58 2.686h-8.020z"></path>
<path d="M16.551 21.445v0c0-0.001 0-0.002 0 0z"></path>
</symbol>
<symbol id="icon-left-quote-alt" viewBox="0 0 32 32">
<path d="M32 28v-24l-12 12v12zM12 28v-24l-12 12v12z"></path>
</symbol>
<symbol id="icon-home" viewBox="0 0 34 32">
<path d="M32 30v-2h-2v-12h2v-2h-6v2h2v12h-6v-12h2v-2h-6v2h2v12h-6v-12h2v-2h-6v2h2v12h-6v-12h2v-2h-6v2h2v12h-2v2h-2v2h34v-2h-2z"></path>
<path d="M16 0h2l16 10v2h-34v-2l16-10z"></path>
</symbol>
<symbol id="icon-appleinc" viewBox="0 0 32 32">
<path d="M24.734 17.003c-0.040-4.053 3.305-5.996 3.454-6.093-1.88-2.751-4.808-3.127-5.851-3.171-2.492-0.252-4.862 1.467-6.127 1.467-1.261 0-3.213-1.43-5.28-1.392-2.716 0.040-5.221 1.579-6.619 4.012-2.822 4.897-0.723 12.151 2.028 16.123 1.344 1.944 2.947 4.127 5.051 4.049 2.026-0.081 2.793-1.311 5.242-1.311s3.138 1.311 5.283 1.271c2.18-0.041 3.562-1.981 4.897-3.931 1.543-2.255 2.179-4.439 2.216-4.551-0.048-0.022-4.252-1.632-4.294-6.473zM20.705 5.11c1.117-1.355 1.871-3.235 1.665-5.11-1.609 0.066-3.559 1.072-4.713 2.423-1.036 1.199-1.942 3.113-1.699 4.951 1.796 0.14 3.629-0.913 4.747-2.264z"></path>
</symbol>
<symbol id="icon-android" viewBox="0 0 32 32">
<path d="M28 12c-1.1 0-2 0.9-2 2v8c0 1.1 0.9 2 2 2s2-0.9 2-2v-8c0-1.1-0.9-2-2-2zM4 12c-1.1 0-2 0.9-2 2v8c0 1.1 0.9 2 2 2s2-0.9 2-2v-8c0-1.1-0.9-2-2-2zM7 23c0 1.657 1.343 3 3 3v0 4c0 1.1 0.9 2 2 2s2-0.9 2-2v-4h4v4c0 1.1 0.9 2 2 2s2-0.9 2-2v-4c1.657 0 3-1.343 3-3v-11h-18v11z"></path>
<path d="M24.944 10c-0.304-2.746-1.844-5.119-4.051-6.551l1.001-2.001c0.247-0.494 0.047-1.095-0.447-1.342s-1.095-0.047-1.342 0.447l-1.004 2.009-0.261-0.104c-0.893-0.297-1.848-0.458-2.84-0.458s-1.947 0.161-2.84 0.458l-0.261 0.104-1.004-2.009c-0.247-0.494-0.848-0.694-1.342-0.447s-0.694 0.848-0.447 1.342l1.001 2.001c-2.207 1.433-3.747 3.805-4.051 6.551v1h17.944v-1h-0.056zM13 8c-0.552 0-1-0.448-1-1s0.447-0.999 0.998-1c0.001 0 0.002 0 0.003 0s0.001-0 0.002-0c0.551 0.001 0.998 0.448 0.998 1s-0.448 1-1 1zM19 8c-0.552 0-1-0.448-1-1s0.446-0.999 0.998-1c0 0 0.001 0 0.002 0s0.002-0 0.003-0c0.551 0.001 0.998 0.448 0.998 1s-0.448 1-1 1z"></path>
</symbol>
<symbol id="icon-chevron-right" viewBox="0 0 20 20">
<path d="M9.163 4.516c0.418 0.408 4.502 4.695 4.502 4.695 0.223 0.219 0.335 0.504 0.335 0.789s-0.112 0.57-0.335 0.787c0 0-4.084 4.289-4.502 4.695-0.418 0.408-1.17 0.436-1.615 0-0.446-0.434-0.481-1.041 0-1.574l3.747-3.908-3.747-3.908c-0.481-0.533-0.446-1.141 0-1.576s1.197-0.409 1.615 0z"></path>
</symbol>
<symbol id="icon-chevron-small-right" viewBox="0 0 20 20">
<path d="M11 10l-3.141-3.42c-0.268-0.27-0.268-0.707 0-0.978 0.268-0.27 0.701-0.27 0.969 0l3.83 3.908c0.268 0.271 0.268 0.709 0 0.979l-3.83 3.908c-0.267 0.272-0.701 0.27-0.969 0s-0.268-0.707 0-0.978l3.141-3.419z"></path>
</symbol>
<symbol id="icon-triangle-right" viewBox="0 0 20 20">
<path d="M15 10l-9 5v-10l9 5z"></path>
</symbol>
<symbol id="icon-xing" viewBox="0 0 20 20">
<path d="M17.703 1h-2.828c-0.223 0-0.553 0.105-0.69 0.381s-0.31 0.619-0.31 0.619l-5 10 3 6c0 0 0.172 0.344 0.31 0.619s0.467 0.381 0.69 0.381h2.828c0.5 0 0.48-0.381 0.355-0.631s-0.183-0.369-0.183-0.369l-3-6 5-10c0 0 0.059-0.119 0.184-0.369s0.144-0.631-0.356-0.631zM6.815 5.381c-0.137-0.276-0.467-0.381-0.69-0.381h-2.828c-0.5 0-0.48 0.381-0.355 0.631s0.183 0.369 0.183 0.369l1.25 2.5-2.25 4.5c0 0-0.059 0.119-0.184 0.369s-0.144 0.631 0.356 0.631h2.828c0.223 0 0.553-0.106 0.691-0.381s0.309-0.619 0.309-0.619l2.25-4.5-1.25-2.5c0 0-0.172-0.344-0.31-0.619z"></path>
</symbol>
<symbol id="icon-instagram" viewBox="0 0 20 20">
<path d="M17 1h-14c-1.1 0-2 0.9-2 2v14c0 1.101 0.9 2 2 2h14c1.1 0 2-0.899 2-2v-14c0-1.1-0.9-2-2-2zM9.984 15.523c3.059 0 5.538-2.481 5.538-5.539 0-0.338-0.043-0.664-0.103-0.984h1.581v7.216c0 0.382-0.31 0.69-0.693 0.69h-12.614c-0.383 0-0.693-0.308-0.693-0.69v-7.216h1.549c-0.061 0.32-0.104 0.646-0.104 0.984 0 3.059 2.481 5.539 5.539 5.539zM6.523 9.984c0-1.912 1.55-3.461 3.462-3.461s3.462 1.549 3.462 3.461-1.551 3.462-3.462 3.462c-1.913 0-3.462-1.55-3.462-3.462zM16.307 6h-1.615c-0.382 0-0.692-0.312-0.692-0.692v-1.617c0-0.382 0.31-0.691 0.691-0.691h1.615c0.384 0 0.694 0.309 0.694 0.691v1.616c0 0.381-0.31 0.693-0.693 0.693z"></path>
</symbol>
<symbol id="icon-linkedin" viewBox="0 0 20 20">
<path d="M5 3c0 1.062-0.71 1.976-2.001 1.976-1.215 0-1.999-0.862-1.999-1.924 0-1.090 0.76-2.052 2-2.052s1.976 0.91 2 2zM1 19v-13h4v13h-4z"></path>
<path d="M7 10.444c0-1.545-0.051-2.836-0.102-3.951h3.594l0.178 1.723h0.076c0.506-0.811 1.746-2 3.822-2 2.532 0 4.432 1.695 4.432 5.342v7.442h-4v-6.861c0-1.594-0.607-2.81-2-2.81-1.062 0-1.594 0.86-1.873 1.569-0.102 0.254-0.127 0.608-0.127 0.963v7.139h-4v-8.556z"></path>
</symbol>
<symbol id="icon-twitter" viewBox="0 0 20 20">
<path d="M17.316 6.246c0.008 0.162 0.011 0.326 0.011 0.488 0 4.99-3.797 10.742-10.74 10.742-2.133 0-4.116-0.625-5.787-1.697 0.296 0.035 0.596 0.053 0.9 0.053 1.77 0 3.397-0.604 4.688-1.615-1.651-0.031-3.046-1.121-3.526-2.621 0.23 0.043 0.467 0.066 0.71 0.066 0.345 0 0.679-0.045 0.995-0.131-1.727-0.348-3.028-1.873-3.028-3.703 0-0.016 0-0.031 0-0.047 0.509 0.283 1.092 0.453 1.71 0.473-1.013-0.678-1.68-1.832-1.68-3.143 0-0.691 0.186-1.34 0.512-1.898 1.861 2.285 4.644 3.787 7.781 3.945-0.064-0.277-0.097-0.564-0.097-0.861 0-2.084 1.689-3.773 3.774-3.773 1.086 0 2.067 0.457 2.756 1.191 0.859-0.17 1.667-0.484 2.397-0.916-0.282 0.881-0.881 1.621-1.66 2.088 0.764-0.092 1.49-0.293 2.168-0.594-0.506 0.758-1.146 1.422-1.884 1.953z"></path>
</symbol>
<symbol id="icon-facebook" viewBox="0 0 24 24">
<path d="M13 10h3v3h-3v7h-3v-7h-3v-3h3v-1.255c0-1.189 0.374-2.691 1.118-3.512 0.744-0.823 1.673-1.233 2.786-1.233h2.096v3h-2.1c-0.498 0-0.9 0.402-0.9 0.899v2.101z"></path>
</symbol>
<symbol id="icon-github" viewBox="0 0 24 24">
<path d="M8.713 18.042c-1.268 0.38-2.060 0.335-2.583 0.17-0.231-0.073-0.431-0.176-0.614-0.302-0.411-0.284-0.727-0.675-1.119-1.172-0.356-0.451-0.85-1.107-1.551-1.476-0.185-0.098-0.386-0.177-0.604-0.232-0.536-0.134-1.079 0.192-1.213 0.728s0.192 1.079 0.728 1.213c0.074 0.023 0.155 0.060 0.155 0.060 0.252 0.133 0.487 0.404 0.914 0.946 0.366 0.464 0.856 1.098 1.553 1.579 0.332 0.229 0.711 0.426 1.149 0.564 1.015 0.321 2.236 0.296 3.76-0.162 0.529-0.159 0.829-0.716 0.67-1.245s-0.716-0.829-1.245-0.67zM17 22v-3.792c0.052-0.684-0.056-1.343-0.292-1.942 0.777-0.171 1.563-0.427 2.297-0.823 2.083-1.124 3.496-3.242 3.496-6.923 0-1.503-0.516-2.887-1.379-3.981 0.355-1.345 0.226-2.726-0.293-3.933-0.122-0.283-0.359-0.482-0.634-0.564-0.357-0.106-1.732-0.309-4.373 1.362-2.273-0.541-4.557-0.509-6.646-0.002-2.639-1.669-4.013-1.466-4.37-1.36-0.296 0.088-0.521 0.3-0.635 0.565-0.554 1.292-0.624 2.672-0.292 3.932-0.93 1.178-1.387 2.601-1.379 4.017 0 3.622 1.389 5.723 3.441 6.859 0.752 0.416 1.56 0.685 2.357 0.867-0.185 0.468-0.286 0.961-0.304 1.456-0.005 0.141-0.003 0.283 0.005 0.424l0.001 3.838c0 0.552 0.448 1 1 1s1-0.448 1-1v-3.87c0-0.021-0.001-0.045-0.002-0.069-0.006-0.084-0.007-0.168-0.004-0.252 0.020-0.568 0.241-1.126 0.665-1.564 0.145-0.149 0.246-0.347 0.274-0.572 0.068-0.548-0.321-1.048-0.869-1.116-0.34-0.042-0.677-0.094-1.006-0.159-0.79-0.156-1.518-0.385-2.147-0.733-1.305-0.723-2.391-2.071-2.41-5.042 0.013-1.241 0.419-2.319 1.224-3.165 0.257-0.273 0.35-0.671 0.212-1.040-0.28-0.748-0.341-1.58-0.14-2.392 0.491 0.107 1.354 0.416 2.647 1.282 0.235 0.157 0.533 0.214 0.825 0.133 1.997-0.557 4.242-0.602 6.47 0.002 0.271 0.073 0.569 0.033 0.818-0.135 1.293-0.866 2.156-1.175 2.647-1.282 0.189 0.766 0.157 1.595-0.141 2.392-0.129 0.352-0.058 0.755 0.213 1.040 0.758 0.795 1.224 1.872 1.224 3.060 0 3.075-1.114 4.445-2.445 5.163-0.623 0.336-1.343 0.555-2.123 0.7-0.322 0.060-0.651 0.106-0.983 0.143-0.21 0.023-0.418 0.114-0.584 0.275-0.397 0.384-0.408 1.017-0.024 1.414 0.067 0.070 0.13 0.143 0.188 0.22 0.34 0.449 0.521 1.015 0.474 1.617 0 0.024-0.001 0.051-0.003 0.078v3.872c0 0.552 0.448 1 1 1s1-0.448 1-1z"></path>
</symbol>
<symbol id="icon-google" viewBox="0 0 20 20">
<path d="M1.989 5.589c0 1.494 0.499 2.572 1.482 3.205 0.806 0.52 1.74 0.598 2.226 0.598 0.118 0 0.213-0.006 0.279-0.010 0 0-0.154 1.004 0.59 1.996h-0.034c-1.289 0-5.493 0.269-5.493 3.727 0 3.516 3.861 3.695 4.636 3.695 0.061 0 0.097-0.002 0.097-0.002 0.008 0 0.063 0.002 0.158 0.002 0.497 0 1.782-0.062 2.975-0.643 1.548-0.75 2.333-2.059 2.333-3.885 0-1.764-1.196-2.814-2.069-3.582-0.533-0.469-0.994-0.873-0.994-1.266 0-0.4 0.337-0.701 0.762-1.082 0.689-0.615 1.339-1.492 1.339-3.15 0-1.457-0.189-2.436-1.354-3.057 0.121-0.062 0.551-0.107 0.763-0.137 0.631-0.086 1.554-0.184 1.554-0.699v-0.099h-4.599c-0.046 0.002-4.651 0.172-4.651 4.389zM9.413 14.602c0.088 1.406-1.115 2.443-2.922 2.574-1.835 0.135-3.345-0.691-3.433-2.096-0.043-0.676 0.254-1.336 0.835-1.863 0.589-0.533 1.398-0.863 2.278-0.928 0.104-0.006 0.207-0.012 0.31-0.012 1.699 0.001 2.849 0.999 2.932 2.325zM8.212 4.626c0.451 1.588-0.23 3.246-1.316 3.553-0.125 0.035-0.253 0.052-0.384 0.052-0.994 0-1.979-1.006-2.345-2.393-0.204-0.776-0.187-1.458 0.047-2.112 0.229-0.645 0.643-1.078 1.163-1.225 0.125-0.035 0.254-0.053 0.385-0.053 1.2 0 1.972 0.498 2.45 2.178zM16 8v-3h-2v3h-3v2h3v3h2v-3h3v-2h-3z"></path>
</symbol>
<symbol id="icon-heart-pulse" viewBox="0 0 1024 1024"><title>heart-pulse</title><path class="path1" d="M486.4 972.8c-4.283 0-8.566-1.074-12.432-3.222-5.954-3.307-147.285-82.464-274.914-208.987-10.040-9.954-10.11-26.163-0.157-36.203s26.163-10.11 36.203-0.157c101.349 100.472 214.307 171.323 251.293 193.35 37-22.054 150.123-93.045 251.304-193.352 10.042-9.952 26.248-9.882 36.205 0.158 9.954 10.040 9.883 26.25-0.158 36.205-127.629 126.52-268.958 205.678-274.912 208.986-3.866 2.149-8.149 3.222-12.432 3.222z"></path><path class="path2" d="M65.478 563.216c-9.61 0-18.821-5.437-23.182-14.709-28.066-59.659-42.296-119.314-42.296-177.307 0-148.218 120.582-268.8 268.8-268.8 50.173 0 103.461 18.805 150.051 52.952 27.251 19.973 50.442 44.043 67.549 69.606 17.107-25.565 40.299-49.634 67.55-69.606 46.589-34.147 99.878-52.952 150.050-52.952 148.218 0 268.8 120.582 268.8 268.8 0 57.992-14.23 117.645-42.294 177.301-6.018 12.794-21.267 18.29-34.061 12.267-12.794-6.018-18.286-21.267-12.269-34.061 24.834-52.786 37.424-105.107 37.424-155.507 0-119.986-97.616-217.6-217.6-217.6-87.187 0-171.856 71.725-193.314 136.096-3.485 10.453-13.267 17.504-24.286 17.504s-20.802-7.051-24.286-17.504c-21.456-64.371-106.125-136.096-193.314-136.096-119.986 0-217.6 97.614-217.6 217.6 0 50.4 12.592 102.723 37.426 155.512 6.019 12.794 0.526 28.043-12.267 34.061-3.522 1.659-7.23 2.443-10.88 2.443z"></path><path class="path3" d="M538.346 768.024c-0.232 0-0.456-0.002-0.678-0.006-10.35-0.218-29.122-5.598-38.552-39.194l-62.291-221.915-41.328 167.894c-8.106 32.933-26.902 39.813-37.387 40.982-10.483 1.173-30.334-1.397-45.504-31.733l-31.005-62.010c-1.475-2.952-2.85-4.834-3.893-6-0.171 0.229-0.355 0.483-0.546 0.765-18.939 27.816-61.053 48.792-97.962 48.792h-51.2c-14.138 0-25.6-11.461-25.6-25.6s11.462-25.6 25.6-25.6h51.2c21.554 0 47.152-13.942 55.638-26.408 11.397-16.739 28.026-25.638 45.629-24.48 19.142 1.286 36.246 14.274 46.928 35.634l22.781 45.562 47.93-194.71c8.069-32.784 24.658-39.907 37.15-40.109 12.512-0.24 29.302 6.379 38.43 38.888l65.763 234.286 60.323-184.738c10.504-32.168 29.779-37.707 40.334-38.144 10.542-0.435 30.224 3.482 43.357 34.672l37.062 88.026c6.946 16.496 29.573 31.522 47.474 31.522h76.8c14.139 0 25.6 11.461 25.6 25.6s-11.461 25.6-25.6 25.6h-76.8c-38.24 0-79.822-27.608-94.662-62.853l-30.301-71.968-65.208 199.699c-10.598 32.454-29 37.546-39.483 37.546z"></path></symbol>
<symbol id="icon-map" viewBox="0 0 41 32">
<path d="M9.239 31.927c0.009 0.006 0.021 0.003 0.030 0.009 0.073 0.037 0.149 0.064 0.231 0.064 0.044 0 0.088-0.006 0.132-0.018l10.868-2.966 10.868 2.966c0.044 0.012 0.088 0.018 0.132 0.018 0.082 0 0.158-0.027 0.23-0.065 0.010-0.005 0.021-0.003 0.030-0.009l9-5.5c0.191-0.117 0.281-0.348 0.22-0.563l-4.984-17.5c-0.041-0.147-0.148-0.267-0.29-0.326-0.142-0.057-0.301-0.048-0.436 0.026l-4.962 2.784c-0.24 0.135-0.326 0.44-0.191 0.681s0.439 0.327 0.682 0.191l4.409-2.475 4.707 16.526-8.015 4.899-1.904-15.231c-0.034-0.275-0.293-0.466-0.559-0.434-0.273 0.034-0.468 0.284-0.434 0.558l1.907 15.259-9.91-2.705v-2.73c0-0.276-0.224-0.5-0.5-0.5s-0.5 0.224-0.5 0.5v2.73l-9.911 2.705 1.907-15.259c0.034-0.274-0.16-0.524-0.434-0.558-0.272-0.032-0.524 0.159-0.559 0.434l-1.903 15.231-8.015-4.898 4.707-16.525 4.409 2.475c0.242 0.134 0.546 0.049 0.682-0.191 0.135-0.241 0.049-0.545-0.191-0.681l-4.963-2.785c-0.133-0.075-0.292-0.085-0.435-0.026s-0.249 0.178-0.29 0.326l-4.984 17.5c-0.062 0.216 0.028 0.446 0.22 0.563l8.999 5.5zM20.161 23.368c0.096 0.088 0.217 0.132 0.339 0.132 0.12 0 0.24-0.043 0.336-0.129 0.333-0.303 8.164-7.489 8.164-14.871 0-4.767-3.733-8.5-8.5-8.5s-8.5 3.733-8.5 8.5c0 7.254 7.828 14.56 8.161 14.868zM20.5 1c4.275 0 7.5 3.224 7.5 7.5 0 6.097-5.993 12.337-7.497 13.807-1.501-1.487-7.503-7.809-7.503-13.807 0-4.276 3.225-7.5 7.5-7.5zM25 8.5c0-2.481-2.019-4.5-4.5-4.5s-4.5 2.019-4.5 4.5 2.019 4.5 4.5 4.5 4.5-2.019 4.5-4.5zM20.5 12c-1.93 0-3.5-1.57-3.5-3.5s1.57-3.5 3.5-3.5 3.5 1.57 3.5 3.5-1.57 3.5-3.5 3.5z"></path>
</symbol>
<symbol id="icon-users" viewBox="0 0 1024 1024"><title>users</title><path class="path1" d="M947.2 921.6h-563.2c-42.347 0-76.8-34.453-76.8-76.8 0-2.461 0.538-60.952 47.331-118.544 26.883-33.088 63.541-59.31 108.952-77.941 54.856-22.504 122.858-33.915 202.117-33.915s147.261 11.411 202.117 33.915c45.411 18.63 82.067 44.853 108.952 77.941 46.794 57.592 47.331 116.083 47.331 118.544 0 42.347-34.453 76.8-76.8 76.8zM358.4 844.931c0.072 14.056 11.528 25.469 25.6 25.469h563.2c14.072 0 25.528-11.413 25.6-25.469-0.048-1.786-1.656-45.802-37.851-88.786-49.88-59.235-143.019-90.546-269.349-90.546s-219.469 31.31-269.349 90.546c-36.194 42.984-37.803 87-37.851 88.786z"></path><path class="path2" d="M665.6 563.2c-112.926 0-204.8-91.874-204.8-204.8 0-112.928 91.874-204.8 204.8-204.8s204.8 91.872 204.8 204.8c0 112.926-91.874 204.8-204.8 204.8zM665.6 204.8c-84.696 0-153.6 68.904-153.6 153.6s68.904 153.6 153.6 153.6 153.6-68.904 153.6-153.6-68.904-153.6-153.6-153.6z"></path><path class="path3" d="M230.4 921.6h-153.6c-42.347 0-76.8-34.451-76.8-76.8 0-1.915 0.386-47.446 33.92-92.16 19.373-25.832 45.778-46.299 78.483-60.834 39.126-17.389 87.438-26.206 143.597-26.206 9.16 0 18.232 0.235 26.962 0.701 14.118 0.754 24.954 12.81 24.2 26.928-0.752 14.117-12.781 24.96-26.928 24.2-7.826-0.418-15.979-0.629-24.234-0.629-199.366 0-204.666 121.826-204.8 128.131 0.072 14.054 11.528 25.469 25.6 25.469h153.6c14.138 0 25.6 11.461 25.6 25.6s-11.462 25.6-25.6 25.6z"></path><path class="path4" d="M256 614.4c-84.696 0-153.6-68.904-153.6-153.6s68.904-153.6 153.6-153.6 153.6 68.904 153.6 153.6-68.904 153.6-153.6 153.6zM256 358.4c-56.464 0-102.4 45.936-102.4 102.4s45.936 102.4 102.4 102.4 102.4-45.936 102.4-102.4c0-56.464-45.936-102.4-102.4-102.4z"></path></symbol>
</defs>
</svg>
